<?xml version="1.0" encoding="UTF-8"?>
<svg version="1.1" xmlns="http://www.w3.org/2000/svg" width="1024" height="1024">
<path d="M0 0 C1.019729 0.55228271 1.019729 0.55228271 2.06005859 1.11572266 C16.61511016 9.08273374 29.83304218 18.81935126 41.97265625 30.12890625 C43.80254157 31.81775995 45.67845202 33.3865553 47.625 34.9375 C48.800625 35.9584375 48.800625 35.9584375 50 37 C50 37.66 50 38.32 50 39 C50.99 39.33 51.98 39.66 53 40 C55.58030653 42.42936938 57.74906469 45.26785768 60 48 C60.66080566 48.79446533 60.66080566 48.79446533 61.33496094 49.60498047 C98.58488149 94.52995255 117.38015761 150.75402418 112.53125 209.1796875 C107.42722203 261.36551978 85.03518204 308.08055291 48 345 C47.31421875 345.7321875 46.6284375 346.464375 45.921875 347.21875 C34.60786027 359.10253526 20.98006361 368.51789644 7 377 C5.93007813 377.66386719 4.86015625 378.32773437 3.7578125 379.01171875 C-15.12711149 390.32045559 -36.1898484 397.99134685 -57.625 402.75 C-58.96473877 403.04825684 -58.96473877 403.04825684 -60.33154297 403.35253906 C-74.81238098 406.39756289 -89.06001863 407.4109343 -103.8125 407.375 C-105.08333939 407.37418427 -105.08333939 407.37418427 -106.37985229 407.37335205 C-166.12665483 407.19818874 -220.89402739 382.6009887 -262.90087891 340.40356445 C-268.80324883 334.33050571 -273.9641457 327.79620047 -279 321 C-279.85023745 319.88019089 -280.7004977 318.7603991 -281.55078125 317.640625 C-288.30477455 308.60784534 -293.80585085 298.99830136 -299 289 C-299.35835938 288.31599121 -299.71671875 287.63198242 -300.0859375 286.92724609 C-315.57299547 256.97929329 -322.46084448 223.12224176 -322.375 189.5625 C-322.37478851 188.78818634 -322.37457703 188.01387268 -322.37435913 187.21609497 C-322.33562809 172.87771834 -321.00777865 159.04536244 -318 145 C-317.81808105 144.14744629 -317.63616211 143.29489258 -317.44873047 142.41650391 C-309.72192147 107.63550575 -293.23974808 75.87289536 -270 49 C-269.1853125 48.05511719 -268.370625 47.11023438 -267.53125 46.13671875 C-259.07188988 36.56036565 -250.10013006 27.83382331 -240 20 C-239.46842285 19.58137695 -238.9368457 19.16275391 -238.38916016 18.73144531 C-212.04618185 -1.8994271 -180.16442506 -16.43443426 -147.25585938 -22.578125 C-145.76511219 -22.85691408 -144.27667299 -23.14837477 -142.79101562 -23.453125 C-94.91673957 -33.11964549 -42.51051755 -23.2385188 0 0 Z M-249 45 C-249.79792969 45.75796875 -250.59585938 46.5159375 -251.41796875 47.296875 C-266.39557047 61.83623364 -278.41576742 79.5242566 -288 98 C-288.60328125 99.15242188 -289.2065625 100.30484375 -289.828125 101.4921875 C-313.19969682 148.76171788 -316.16572337 204.90551889 -299.75 254.8125 C-292.48981007 275.92922369 -282.42459598 295.18137079 -269 313 C-268.525625 313.63067383 -268.05125 314.26134766 -267.5625 314.91113281 C-266.11459525 316.82402294 -264.65439175 318.72664018 -263.1875 320.625 C-262.74365967 321.20507812 -262.29981934 321.78515625 -261.8425293 322.3828125 C-259.19453989 325.75759367 -256.4535482 328.45789091 -253 331 C-252.46632813 330.27296875 -251.93265625 329.5459375 -251.3828125 328.796875 C-248.94778416 325.51085059 -246.4808839 322.25142605 -244 319 C-243.23042969 317.98292969 -242.46085937 316.96585938 -241.66796875 315.91796875 C-234.70576718 307.10841685 -226.56756361 300.62828303 -217.43359375 294.19140625 C-213.29562749 291.25748911 -210.63972166 289.02847975 -209 284 C-209.28551313 279.71730299 -212.01496758 277.88328932 -215.0625 275.125 C-221.29846911 269.25699497 -225.14116305 262.573935 -229 255 C-228.67 254.67 -228.34 254.34 -228 254 C-220.87226315 255.92778648 -216.50103801 257.66479678 -212.48046875 263.9609375 C-209.97093495 267.41734025 -206.51645252 269.64379831 -203 272 C-200.75819533 269.88833295 -199.06227798 267.7440304 -197.3984375 265.15625 C-196.9130249 264.40996338 -196.4276123 263.66367676 -195.92749023 262.89477539 C-195.41516846 262.10449951 -194.90284668 261.31422363 -194.375 260.5 C-186.04838204 247.86646743 -176.68029675 235.38730684 -164.4375 226.25 C-160.94828959 223.02919039 -160.18882662 219.41150133 -159.82836914 214.80810547 C-159.76832807 212.47273212 -159.77591302 210.14828959 -159.8125 207.8125 C-159.81314453 207.01908203 -159.81378906 206.22566406 -159.81445312 205.40820312 C-159.84210738 201.74862306 -160.00641939 198.54170606 -161 195 C-159.35 194.67 -157.7 194.34 -156 194 C-155.51890037 196.52047792 -155.04007397 199.0413537 -154.5625 201.5625 C-154.42779297 202.26697266 -154.29308594 202.97144531 -154.15429688 203.69726562 C-153.31861358 208.12027231 -152.60374755 212.53930209 -152 217 C-150.45326208 216.28165334 -148.91285474 215.54967226 -147.375 214.8125 C-146.51648438 214.40644531 -145.65796875 214.00039063 -144.7734375 213.58203125 C-136.56221979 208.89816762 -133.70251406 203.35252946 -129.6875 194.9375 C-129.15060547 193.84888672 -128.61371094 192.76027344 -128.06054688 191.63867188 C-124.27924884 183.89011034 -122.80584944 178.48762653 -122.8125 169.9375 C-122.8115332 168.66845825 -122.8115332 168.66845825 -122.81054688 167.3737793 C-122.86344421 161.08681023 -123.46111102 155.11433567 -125 149 C-120.96254683 151.75110181 -117.61547184 154.16343204 -116.0234375 158.9140625 C-115.55595206 161.61431423 -115.197654 164.26743339 -115 167 C-114.360625 166.154375 -113.72125 165.30875 -113.0625 164.4375 C-110 162 -110 162 -107.6640625 161.890625 C-105.40955438 162.16088149 -103.2170777 162.5121463 -101 163 C-101.61746094 163.86238281 -102.23492188 164.72476563 -102.87109375 165.61328125 C-114.44537242 181.18295943 -114.44537242 181.18295943 -120 199 C-113.74160737 197.01705822 -107.70096754 194.71428141 -101.671875 192.12109375 C-100.80820816 191.75251755 -99.94454132 191.38394135 -99.05470276 191.00419617 C-96.28452182 189.81977999 -93.51702945 188.62925836 -90.75 187.4375 C-89.80957855 187.03360046 -88.8691571 186.62970093 -87.90023804 186.21356201 C-63.98289313 176.06276395 -63.98289313 176.06276395 -41 164 C-41.10941603 167.60220883 -41.58881406 170.66913161 -43 174 C-46.22398991 176.87750703 -49.86134124 178.60035801 -53.75 180.4375 C-54.74 180.93958984 -55.73 181.44167969 -56.75 181.95898438 C-59.4851375 183.33935123 -62.23775428 184.67495522 -65 186 C-66.23585854 186.61290305 -67.47057667 187.22812329 -68.703125 187.84765625 C-69.84007812 188.41806641 -69.84007812 188.41806641 -71 189 C-69.95619856 192.31388709 -68.9026015 193.05706661 -65.83984375 194.8515625 C-64.54648597 195.45877821 -63.24516194 196.04923484 -61.9375 196.625 C-61.25937256 196.93058838 -60.58124512 197.23617676 -59.88256836 197.55102539 C-52.17200227 200.93491811 -45.4189612 202.30614404 -37 202 C-37.33 203.98 -37.66 205.96 -38 208 C-51.89618882 207.75063935 -67.56018961 205.67272611 -78.89453125 197.0390625 C-81.91571106 195.54809065 -83.73769558 196.27566526 -87 197 C-89.18425342 197.80035402 -91.34397002 198.66957057 -93.48046875 199.58984375 C-94.08677124 199.84990707 -94.69307373 200.1099704 -95.31774902 200.37791443 C-97.27804727 201.22282799 -99.23310619 202.07902489 -101.1875 202.9375 C-101.85584869 203.2290094 -102.52419739 203.5205188 -103.21279907 203.82086182 C-136.66084234 218.43394361 -170.8807326 237.45717596 -185.67578125 272.84765625 C-186.84763346 275.88126803 -187.96546496 278.91718955 -189 282 C-184.06195515 281.0253001 -179.12901136 280.03625934 -174.2109375 278.96484375 C-164.90683599 276.97171872 -156.0048582 275.54170979 -146.48046875 275.37109375 C-139.69419419 274.64752912 -135.34881346 271.79356003 -130.67578125 267.109375 C-129 266 -129 266 -126.79296875 266.328125 C-126.20128906 266.54984375 -125.60960937 266.7715625 -125 267 C-126.37154504 269.95409701 -127.98863724 272.44008376 -130 275 C-125.29403637 279.70596363 -106.67913295 277.96864553 -100.13525391 278.02441406 C-97.70994193 277.97950936 -95.29667233 277.88811121 -92.875 277.75 C-91.84064819 277.69223389 -91.84064819 277.69223389 -90.78540039 277.63330078 C-86.00434958 277.27382328 -81.60784918 276.25202138 -77 275 C-76.67 276.98 -76.34 278.96 -76 281 C-91.28762877 284.08628937 -106.13109328 284.36179841 -121.6875 284.1875 C-124.0579341 284.17240996 -126.42837762 284.15872928 -128.79882812 284.14648438 C-134.53276184 284.11385824 -140.26633506 284.06400897 -146 284 C-144.77065985 287.68802044 -143.06140622 288.72356973 -140 291 C-140.66 292.32 -141.32 293.64 -142 295 C-142.74765625 294.51789063 -143.4953125 294.03578125 -144.265625 293.5390625 C-145.25046875 292.90742187 -146.2353125 292.27578125 -147.25 291.625 C-148.22453125 290.99851562 -149.1990625 290.37203125 -150.203125 289.7265625 C-155.90770658 286.20501912 -158.1844161 285.79087317 -164.76953125 287.19140625 C-187.54920356 292.89321057 -210.60967968 304.1194129 -223.13085938 324.87451172 C-230.1605917 336.79106318 -230.1605917 336.79106318 -232 350 C-217.69298649 367.66506994 -189.76295145 377.76072495 -169 385 C-167.26169922 385.61488281 -167.26169922 385.61488281 -165.48828125 386.2421875 C-114.27733813 403.1595029 -57.41878674 395.8901974 -9.8359375 372.046875 C7.39748508 363.17697652 22.49984913 351.81491019 36.48925781 338.44335938 C37.51252583 337.46573162 38.54069027 336.49320776 39.57324219 335.52539062 C72.07835338 304.97651409 93.19028496 261.06445405 99 217 C99.0928125 216.29875 99.185625 215.5975 99.28125 214.875 C105.41585488 162.46794691 91.24773676 108.83740892 59 67 C58.23042969 65.9996875 57.46085937 64.999375 56.66796875 63.96875 C22.69105015 21.35985749 -26.71725038 -6.63121901 -81 -13 C-81.87269531 -13.11085938 -82.74539063 -13.22171875 -83.64453125 -13.3359375 C-144.89434676 -19.8201812 -205.06972435 2.56660782 -249 45 Z " fill="#4D4D4C" transform="translate(617,323)"/>
<path d="M0 0 C5 2 5 2 10 4 C11.65 2.68 13.3 1.36 15 0 C19.12528416 1.52788302 21.72561139 4.33528745 24 8 C26.78441768 14.28360925 27.98484026 20.33182879 26 27 C22.42299786 35.16543248 17.2490338 42.82172704 12 50 C11.67 50 11.34 50 11 50 C10.97274659 48.2709226 10.95349013 46.54171824 10.9375 44.8125 C10.92589844 43.84957031 10.91429687 42.88664062 10.90234375 41.89453125 C10.99513378 39.14423487 11.37888315 36.67520409 12 34 C9.1575146 32.42726432 9.1575146 32.42726432 6 32 C5.95745644 33.99954746 5.95919217 36.00041636 6 38 C6.33 38.33 6.66 38.66 7 39 C7.07226502 40.85287502 7.0838122 42.70833878 7.0625 44.5625 C7.05347656 45.57441406 7.04445313 46.58632813 7.03515625 47.62890625 C7.02355469 48.41136719 7.01195312 49.19382812 7 50 C-10.40929773 28.34743381 -10.40929773 28.34743381 -9 14 C-7.28978222 8.20426197 -4.0631455 4.32613226 0 0 Z " fill="#DC9091" transform="translate(369,468)"/>
<path d="M0 0 C0.9075 0.680625 1.815 1.36125 2.75 2.0625 C5.6739974 4.19997416 5.6739974 4.19997416 8.125 3.9375 C10.30296352 2.84851824 12.12059143 1.54379989 14 0 C18.77174317 1.76731229 21.66698058 5.48736419 23.984375 9.85546875 C26.70595243 16.28712108 27.28141761 21.72267738 24.7109375 28.296875 C20.9767612 36.10624827 16.57194074 43.34085131 11 50 C10.67 50 10.34 50 10 50 C9.97274659 48.2709226 9.95349013 46.54171824 9.9375 44.8125 C9.92589844 43.84957031 9.91429687 42.88664062 9.90234375 41.89453125 C9.99513378 39.14423487 10.37888315 36.67520409 11 34 C9.02 33.34 7.04 32.68 5 32 C4.95745644 33.99954746 4.95919217 36.00041636 5 38 C5.33 38.33 5.66 38.66 6 39 C6.07205511 40.68608966 6.08386068 42.37500659 6.0625 44.0625 C6.05347656 44.98160156 6.04445313 45.90070313 6.03515625 46.84765625 C6.02355469 47.55792969 6.01195312 48.26820313 6 49 C2.07252581 45.32972323 -0.8372894 41.54479919 -3.6875 37 C-4.07744141 36.39671875 -4.46738281 35.7934375 -4.86914062 35.171875 C-9.23841412 28.3005389 -10.93874537 23.09667878 -10 15 C-8.26299639 8.19015632 -5.80794267 3.95996091 0 0 Z " fill="#DB9090" transform="translate(484,373)"/>
<path d="M0 0 C4.75 1.875 4.75 1.875 7 3 C7 3.66 7 4.32 7 5 C8.093125 4.360625 9.18625 3.72125 10.3125 3.0625 C12.5838291 1.73398675 14.47439892 0.84186703 17 0 C22.75484464 3.39388274 24.96731748 8.90195244 27 15 C28.90228778 27.68994506 20.83360536 37.7483823 13.85546875 47.578125 C13.24316406 48.37734375 12.63085938 49.1765625 12 50 C11.67 50 11.34 50 11 50 C10.97312721 48.18757948 10.95366285 46.37504767 10.9375 44.5625 C10.92589844 43.55316406 10.91429687 42.54382813 10.90234375 41.50390625 C11 39 11 39 12 38 C12.04063832 36.33382885 12.042721 34.66611905 12 33 C10.34385343 32.61781233 8.67542976 32.28604898 7 32 C5.71677453 33.0595877 5.71677453 33.0595877 5.875 35.5 C5.71677453 37.9404123 5.71677453 37.9404123 7 39 C7.07205511 40.68608966 7.08386068 42.37500659 7.0625 44.0625 C7.05347656 44.98160156 7.04445313 45.90070313 7.03515625 46.84765625 C7.02355469 47.55792969 7.01195312 48.26820313 7 49 C3.31364154 45.61369398 0.63717865 41.82257159 -2.125 37.6875 C-2.56714844 37.04876953 -3.00929688 36.41003906 -3.46484375 35.75195312 C-7.63075849 29.54083855 -9.65269312 23.57124021 -9 16 C-7.58330922 9.30940995 -4.79167739 4.82269149 0 0 Z " fill="#DC9090" transform="translate(613,404)"/>
<path d="M0 0 C-4.81776765 7.66742597 -4.81776765 7.66742597 -10 9 C-9.67 10.65 -9.34 12.3 -9 14 C-7.35 14 -5.7 14 -4 14 C-3.773125 12.96875 -3.54625 11.9375 -3.3125 10.875 C-2.12367575 6.64519778 -0.00760446 4.16184059 3 1 C3.33 1 3.66 1 4 1 C4.11783281 4.62471857 4.18778808 8.24893403 4.25 11.875 C4.30027344 13.39480469 4.30027344 13.39480469 4.3515625 14.9453125 C4.4551777 23.02729807 3.17870835 29.89305539 -1.859375 36.40234375 C-7.57160416 41.04057941 -13.29500004 44.72234375 -21 44 C-22.25664978 41.09399739 -23 39.20395416 -23 36 C-26.3 36 -29.6 36 -33 36 C-35.49414472 31.01171056 -34.64416317 23.6309797 -33.3515625 18.3515625 C-30.84985075 12.08659205 -26.72081254 7.78928257 -20.60522461 4.84838867 C-18.00884267 3.8327794 -15.39990822 2.92836913 -12.75 2.0625 C-11.40421875 1.58973633 -11.40421875 1.58973633 -10.03125 1.10742188 C-3.41147379 -1.13715793 -3.41147379 -1.13715793 0 0 Z " fill="#DB9192" transform="translate(372,531)"/>
<path d="M0 0 C4.82598052 2.87936653 8.21486223 7.22688068 11.6875 11.5625 C12.70650391 12.80773437 12.70650391 12.80773437 13.74609375 14.078125 C18.6875 20.24245473 18.6875 20.24245473 18.6875 22.5625 C13.2263601 22.21016839 13.2263601 22.21016839 10.6875 21.5625 C9.1875 19.5 9.1875 19.5 8.6875 17.5625 C5.7175 18.0575 5.7175 18.0575 2.6875 18.5625 C2.6875 20.2125 2.6875 21.8625 2.6875 23.5625 C6.30749306 24.56026574 9.83378166 24.88775335 13.56640625 25.18359375 C15.6875 25.5625 15.6875 25.5625 18.6875 27.5625 C7.76367631 32.66028439 -6.01593017 36.79969842 -17.9375 32.6484375 C-19.98664367 31.44534178 -21.60251558 30.2075483 -23.3125 28.5625 C-23.81136719 28.09328125 -24.31023437 27.6240625 -24.82421875 27.140625 C-28.17108053 23.5731964 -29.29138482 20.20393263 -30.3125 15.5625 C-29.508125 15.335625 -28.70375 15.10875 -27.875 14.875 C-25.12830171 13.82629275 -25.12830171 13.82629275 -24.4375 11.3125 C-24.29833587 8.25088924 -24.68583986 5.55654289 -25.3125 2.5625 C-17.82575349 -2.0914235 -8.38411183 -3.67431196 0 0 Z " fill="#DC9191" transform="translate(352.3125,497.4375)"/>
<path d="M0 0 C6.37575626 5.63874223 11.1328505 13.0746676 16 20 C12.00471255 21.33176248 9.90144863 20.41870859 6 19 C5.34 18.01 4.68 17.02 4 16 C2.35 16.33 0.7 16.66 -1 17 C-0.505 19.475 -0.505 19.475 0 22 C0.99 21.938125 1.98 21.87625 3 21.8125 C7.46888211 21.78508355 10.91304608 23.2791773 15 25 C9.13207572 30.86792428 -3.05371442 31.7062103 -11.02734375 32.09375 C-18.18517731 31.86801018 -23.37246501 29.41624518 -28.55859375 24.54296875 C-31.22924312 21.68414354 -32.72344443 19.25986425 -33.5625 15.4375 C-33 13 -33 13 -30 10.6875 C-29.01 10.130625 -28.02 9.57375 -27 9 C-27.33 6.03 -27.66 3.06 -28 0 C-18.9984656 -5.75098031 -9.19580481 -5.51450207 0 0 Z " fill="#DB9091" transform="translate(470,405)"/>
<path d="M0 0 C-0.08701172 1.13888672 -0.08701172 1.13888672 -0.17578125 2.30078125 C-0.31056291 5.26982868 -0.37267367 8.04930142 0 11 C2.39056942 12.9354148 2.39056942 12.9354148 5 14 C5.39614134 16.86477821 5.24895462 18.52592685 3.8984375 21.09765625 C-0.1237304 26.28522151 -3.63331588 29.87777196 -10 32 C-21.55912569 33.06186194 -31.13097496 30.72500246 -42 27 C-42 26.34 -42 25.68 -42 25 C-37.13948404 22.40772482 -32.34728867 22.81310447 -27 23 C-26.74969023 20.58380177 -26.74969023 20.58380177 -27 18 C-27.99 17.34 -28.98 16.68 -30 16 C-33.27773504 16.75150023 -33.27773504 16.75150023 -35 20 C-36.9453125 20.51171875 -36.9453125 20.51171875 -39.125 20.6875 C-40.40375 20.790625 -41.6825 20.89375 -43 21 C-39.92971987 15.00887816 -36.61155142 9.90590576 -32 5 C-31.175 4.0925 -30.35 3.185 -29.5 2.25 C-20.95388159 -5.44150657 -9.80003064 -5.33932704 0 0 Z " fill="#DC9091" transform="translate(428,499)"/>
<path d="M0 0 C10.27902849 1.68508664 21.7174768 5.03969427 28.2421875 13.63671875 C31.8486058 19.56865506 31.82307351 26.24314072 31 33 C27.99382731 36.00617269 25.17618402 35.59585316 21 36 C20.01 38.64 19.02 41.28 18 44 C10.39598537 43.4568561 4.8425911 41.71338241 -0.75 36.375 C-1.90234375 34.77734375 -1.90234375 34.77734375 -3 33 C-3.39316406 32.38253906 -3.78632812 31.76507813 -4.19140625 31.12890625 C-8.72337498 22.2702496 -7.34675726 11.66385796 -7 2 C-1.97912522 5.64855712 -0.82910358 8.22388344 1 14 C2.65 13.67 4.3 13.34 6 13 C5.81171228 10.55519921 5.81171228 10.55519921 5 8 C3.67532254 7.3162955 2.34136367 6.65035814 1 6 C-0.25 3.375 -0.25 3.375 -1 1 C-0.67 0.67 -0.34 0.34 0 0 Z " fill="#DA9091" transform="translate(632,467)"/>
<path d="M0 0 C9.74397858 1.81667397 23.58886056 4.65750929 29.6875 13.1875 C33.54769806 18.95351912 34.5290985 25.12171944 34 32 C33.34 33.32 32.68 34.64 32 36 C29.03 36 26.06 36 23 36 C22.896875 37.11375 22.79375 38.2275 22.6875 39.375 C22.460625 40.57125 22.23375 41.7675 22 43 C19 45 19 45 17.01953125 44.93359375 C9.39890042 43.22063779 3.38994119 40.62035246 -0.9375 33.875 C-3.35981106 29.6544309 -4.12338035 26.3188857 -4.09765625 21.45703125 C-4.09443359 20.38388672 -4.09121094 19.31074219 -4.08789062 18.20507812 C-4.07951172 17.08552734 -4.07113281 15.96597656 -4.0625 14.8125 C-4.05798828 13.68134766 -4.05347656 12.55019531 -4.04882812 11.38476562 C-4.03703498 8.58979073 -4.0205765 5.7949218 -4 3 C1.02087478 6.64855712 2.17089642 9.22388344 4 15 C5.65 14.67 7.3 14.34 9 14 C9 12.02 9 10.04 9 8 C8.2575 7.979375 7.515 7.95875 6.75 7.9375 C3.57208751 6.85412074 3.27248768 6.25525588 1.6875 3.4375 C1.130625 2.303125 0.57375 1.16875 0 0 Z " fill="#DC9091" transform="translate(385,530)"/>
<path d="M0 0 C6.45918543 5.57292511 11.12865259 13.31236855 15.6796875 20.44921875 C14.4215625 20.32546875 13.1634375 20.20171875 11.8671875 20.07421875 C11.15949219 20.00460937 10.45179688 19.935 9.72265625 19.86328125 C7.6796875 19.44921875 7.6796875 19.44921875 4.6796875 17.44921875 C4.6796875 16.78921875 4.6796875 16.12921875 4.6796875 15.44921875 C3.0296875 15.44921875 1.3796875 15.44921875 -0.3203125 15.44921875 C-0.6503125 17.42921875 -0.9803125 19.40921875 -1.3203125 21.44921875 C2.5774651 22.54603524 6.41205398 22.78960632 10.4375 23.0703125 C12.6796875 23.44921875 12.6796875 23.44921875 14.6796875 25.44921875 C4.41421204 30.46259048 -6.93568282 32.61768282 -18.3203125 31.44921875 C-21.8203125 30.19921875 -21.8203125 30.19921875 -24.3203125 28.44921875 C-25.1865625 27.87171875 -26.0528125 27.29421875 -26.9453125 26.69921875 C-30.03441445 23.77270111 -31.54615061 21.33872752 -33.3203125 17.44921875 C-33.3828125 14.69921875 -33.3828125 14.69921875 -32.3203125 12.44921875 C-29.7578125 10.63671875 -29.7578125 10.63671875 -27.3203125 9.44921875 C-27.6503125 6.47921875 -27.9803125 3.50921875 -28.3203125 0.44921875 C-19.13240595 -5.13558719 -9.60609218 -6.181911 0 0 Z " fill="#DB9190" transform="translate(600.3203125,435.55078125)"/>
<path d="M0 0 C5.91210267 3.03413571 10.45426659 6.27773661 12.66796875 12.83203125 C13.20796763 15.82561726 13.20212136 18.7098429 13.1953125 21.75 C13.19917969 23.48830078 13.19917969 23.48830078 13.203125 25.26171875 C13.0703125 28.0625 13.0703125 28.0625 12.0703125 29.0625 C9.41568129 29.51709858 6.74842112 29.76493238 4.0703125 30.0625 C3.0803125 32.7025 2.0903125 35.3425 1.0703125 38.0625 C-7.14131724 37.54927314 -13.45222986 36.02148212 -19.2421875 29.875 C-24.78484686 22.59760749 -25.35840275 14.88785426 -25.1171875 6 C-25.10365234 5.03900391 -25.09011719 4.07800781 -25.07617188 3.08789062 C-25.04121056 0.74548248 -24.99214854 -1.59569156 -24.9296875 -3.9375 C-18.02059659 2.78977273 -18.02059659 2.78977273 -16.9296875 8.0625 C-15.2796875 8.0625 -13.6296875 8.0625 -11.9296875 8.0625 C-11.51187871 5.68944422 -11.51187871 5.68944422 -11.9296875 3.0625 C-14.30581615 1.45342892 -14.30581615 1.45342892 -16.9296875 0.0625 C-18.2421875 -2.125 -18.2421875 -2.125 -18.9296875 -3.9375 C-12.61762371 -6.04152126 -5.77007551 -2.73425181 0 0 Z " fill="#DB9091" transform="translate(519.9296875,441.9375)"/>
<path d="M0 0 C-2.30971894 4.78441781 -4.29733391 7.40115821 -9 10 C-8.67 11.65 -8.34 13.3 -8 15 C-6.02 15 -4.04 15 -2 15 C-2.06058594 14.26394531 -2.12117187 13.52789062 -2.18359375 12.76953125 C-1.96470738 9.46760709 -1.10746638 8.24250506 0.9375 5.6875 C1.75541016 4.64142578 1.75541016 4.64142578 2.58984375 3.57421875 C3.05519531 3.05472656 3.52054688 2.53523438 4 2 C4.33 2 4.66 2 5 2 C5.14714061 5.79124747 5.23467827 9.58174654 5.3125 13.375 C5.35439453 14.43589844 5.39628906 15.49679687 5.43945312 16.58984375 C5.56398313 24.70919984 4.04690891 31.36103161 -1.40844727 37.61450195 C-5.939899 41.70238891 -10.87820498 43.89896214 -16.9375 44.1875 C-17.948125 44.125625 -18.95875 44.06375 -20 44 C-20.99 40.535 -20.99 40.535 -22 37 C-22.62648438 36.96261719 -23.25296875 36.92523438 -23.8984375 36.88671875 C-24.71570313 36.82097656 -25.53296875 36.75523437 -26.375 36.6875 C-27.59316406 36.60048828 -27.59316406 36.60048828 -28.8359375 36.51171875 C-31 36 -31 36 -33 33 C-34.00911033 24.76985345 -32.50311094 18.79259233 -27.9375 11.875 C-21.94332684 5.18713914 -8.84118769 0 0 0 Z " fill="#DC9193" transform="translate(615,466)"/>
<path d="M0 0 C-1.28519565 2.86697492 -2.57129254 4.97607712 -5 7 C-5.66 7 -6.32 7 -7 7 C-8.19838209 9.32854463 -8.19838209 9.32854463 -9 12 C-8.01 13.485 -8.01 13.485 -7 15 C-5.35 14.67 -3.7 14.34 -2 14 C-1.773125 12.948125 -1.54625 11.89625 -1.3125 10.8125 C-0.44671866 6.79842289 2.06733404 4.74315604 5 2 C5.08825361 5.47900249 5.14080635 8.95771117 5.1875 12.4375 C5.21263672 13.41138672 5.23777344 14.38527344 5.26367188 15.38867188 C5.34318231 23.31321201 4.21754826 29.64199835 -0.1875 36.3125 C-6.15877205 42.01838218 -11.88520102 43.49282506 -20 44 C-20.66 41.36 -21.32 38.72 -22 36 C-25.3 36 -28.6 36 -32 36 C-34.02757507 29.91727478 -33.83266195 23.23065751 -31.5 17.25 C-26.53754523 7.78082611 -18.96159897 4.91674538 -9.25927734 1.77661133 C-6.0148624 0.77914747 -3.41834012 0 0 0 Z " fill="#DB9192" transform="translate(485,436)"/>
<path d="M0 0 C2.8125 1.75 2.8125 1.75 3.8125 3.5625 C3.8125 6.37655909 3.3755659 8.99723337 2.8125 11.75 C3.8025 12.306875 4.7925 12.86375 5.8125 13.4375 C8.8125 15.75 8.8125 15.75 9.5 18.0625 C7.91639969 24.25293756 4.2553945 27.75204516 -0.9375 31.125 C-10.63660186 36.44524264 -18.78920723 34.56595033 -29.1875 31.75 C-31.92750462 30.8579985 -34.52855071 29.8667587 -37.1875 28.75 C-37.1875 28.09 -37.1875 27.43 -37.1875 26.75 C-28.75892857 24.46428571 -28.75892857 24.46428571 -24.1875 24.75 C-24.1875 22.77 -24.1875 20.79 -24.1875 18.75 C-24.8475 18.42 -25.5075 18.09 -26.1875 17.75 C-29.46523504 18.50150023 -29.46523504 18.50150023 -31.1875 21.75 C-33.1328125 22.26171875 -33.1328125 22.26171875 -35.3125 22.4375 C-36.59125 22.540625 -37.87 22.64375 -39.1875 22.75 C-38.10794741 21.01847042 -37.02367488 19.28988316 -35.9375 17.5625 C-35.33421875 16.59957031 -34.7309375 15.63664062 -34.109375 14.64453125 C-32.26265263 11.86318719 -30.40034102 9.25087611 -28.1875 6.75 C-27.5275 6.75 -26.8675 6.75 -26.1875 6.75 C-25.92710937 6.13640625 -25.66671875 5.5228125 -25.3984375 4.890625 C-20.75991503 -3.30908568 -7.75109345 -2.8867241 0 0 Z " fill="#DC9090" transform="translate(538.1875,402.25)"/>
<path d="M0 0 C1.19367187 -0.02578125 2.38734375 -0.0515625 3.6171875 -0.078125 C7.48534239 0.28370686 9.86167771 1.16537024 13.125 3.25 C14.54187119 7.50061356 13.31820039 9.96851625 12.125 14.25 C12.929375 14.476875 13.73375 14.70375 14.5625 14.9375 C17.125 16.25 17.125 16.25 18.3125 18.375 C18.00731657 23.0544793 15.26710812 25.91949996 12.125 29.25 C5.23326707 35.15512696 -0.89897787 36.00901881 -9.79589844 35.49414062 C-16.0004994 34.76555902 -22.12751658 32.63574784 -27.875 30.25 C-28.205 29.59 -28.535 28.93 -28.875 28.25 C-23.74580814 26.14571616 -19.3139165 26.03244334 -13.875 26.25 C-14.205 23.94 -14.535 21.63 -14.875 19.25 C-17.34766765 19.59444881 -17.34766765 19.59444881 -19.875 20.25 C-20.205 20.91 -20.535 21.57 -20.875 22.25 C-22.94140625 22.8828125 -22.94140625 22.8828125 -25.4375 23.375 C-26.26378906 23.54257812 -27.09007812 23.71015625 -27.94140625 23.8828125 C-28.57949219 24.00398438 -29.21757813 24.12515625 -29.875 24.25 C-25.1023885 15.11978669 -18.99481513 4.31531174 -8.9296875 0.515625 C-5.94408314 0.12965333 -3.01027612 0.03884227 0 0 Z " fill="#DC9191" transform="translate(658.875,431.75)"/>
<path d="M0 0 C2.95318904 2.52251564 4.69382275 4.32780116 5.40625 8.21875 C5.59237896 12.87197403 5.17694699 16.39946008 2 20 C-2.32164887 23.08689205 -5.78714782 23.42518022 -10.8828125 22.64453125 C-14.98592512 21.3954287 -16.89323816 18.45891333 -19.375 15.1875 C-20.37631653 11.68289215 -19.93410187 8.45480326 -19 5 C-16.9606304 1.39188455 -15.54599203 0.24149647 -11.75 -1.4375 C-7.27848251 -2.10822762 -4.10089975 -1.93033984 0 0 Z " fill="#DC9291" transform="translate(566,587)"/>
<path d="M0 0 C2.475 0.495 2.475 0.495 5 1 C4.13363735 18.03846536 -5.42465932 31.32086153 -16 44 C-16.91031416 45.0975253 -17.82046234 46.19518827 -18.73046875 47.29296875 C-21.14587415 50.20186682 -23.57066921 53.10272435 -26 56 C-28.2751756 53.79357971 -29.90218833 52.01898208 -31 49 C-30.73305629 46.14666832 -30.1135866 45.11381607 -28.06640625 43.0625 C-27.24011719 42.381875 -26.41382813 41.70125 -25.5625 41 C-12.70001686 29.73613976 -4.03806003 16.69064814 0 0 Z " fill="#595958" transform="translate(567,400)"/>
<path d="M0 0 C3.41184222 1.92303834 5.42958014 3.34059677 6.73046875 7.125 C7.46823313 11.44932192 7.24497853 13.52693801 5.1875 17.5 C2.91652562 20.0953993 2.13919207 20.85886116 -1.20703125 21.2734375 C-5.64853303 21.4465695 -8.23116635 21.48640496 -12.0625 19.0625 C-14.58456465 15.07601072 -15.58916416 11.72161133 -15 7 C-11.6631829 0.70584696 -6.86556491 -1.08269577 0 0 Z " fill="#DB9090" transform="translate(575,373)"/>
<path d="M0 0 C2.97551795 1.77603298 5.42755188 3.85510377 7 7 C7.37712577 11.99691647 7.09290612 14.99067725 4 19 C-0.25929566 21.83953044 -4.00382943 21.73987876 -9 21 C-12.125 19.125 -12.125 19.125 -14 16 C-14.90054627 11.05105204 -14.76898244 7.29931517 -12.1875 2.9375 C-8.41656004 -0.40247539 -4.8826277 -0.49653841 0 0 Z " fill="#D98F90" transform="translate(492,617)"/>
<path d="M0 0 C3.06471302 1.65023009 5.30778907 3.056076 7.375 5.875 C8.52510691 9.78536349 8.40280155 12.84530223 7.0625 16.6875 C3.96937768 20.15554624 0.56912822 21.37762705 -4 22 C-7.875 21.125 -7.875 21.125 -11 19 C-13.15607248 15.42900496 -14 13.0430077 -14 8.875 C-11.63718974 2.08192049 -6.87647517 -0.66119954 0 0 Z " fill="#DC9292" transform="translate(598,523)"/>
<path d="M0 0 C3.25304353 1.34364841 4.57754673 2.25567757 6.3125 5.3125 C7.41682431 9.62940411 7.63311022 12.67348335 5.6875 16.75 C4 19 4 19 1 21 C-4.29895331 21.42733494 -7.73394141 21.51322472 -12 18 C-14.56632517 14.57823311 -14.36435051 11.15359579 -14 7 C-10.9643805 0.49510107 -6.92283221 -0.86535403 0 0 Z " fill="#DC9090" transform="translate(506,567)"/>
<path d="M0 0 C3.17921096 2.41896486 4.6866752 4.09919119 6 7.875 C6 12.0039302 5.08256898 14.43947884 3 18 C-0.40745087 20.47814609 -2.35056907 21 -6.5625 21 C-10.76271886 19.77811815 -12.40536649 18.51038651 -15 15 C-16.17584751 10.95802419 -16.24644076 8.7538188 -14.9375 4.75 C-10.98328477 -0.86243452 -6.46883193 -1.88184202 0 0 Z " fill="#DC9393" transform="translate(457,492)"/>
<path d="M0 0 C0.8125 1.625 0.8125 1.625 1 4 C-1.25 7.25 -1.25 7.25 -4 10 C-4.99 10 -5.98 10 -7 10 C-6.84518205 7.29068581 -6.51827919 5.53415961 -4.59765625 3.5546875 C-3.10228292 2.32320358 -1.5537076 1.1570163 0 0 Z " fill="#505251" transform="translate(558,430)"/>
<path d="M0 0 C3.465 1.485 3.465 1.485 7 3 C6.01 4.98 5.02 6.96 4 9 C1.49701566 6.06171403 0.53069061 3.82097239 0 0 Z " fill="#5A5956" transform="translate(387,575)"/>
<path d="M0 0 C1.32 0.99 2.64 1.98 4 3 C3.34 4.32 2.68 5.64 2 7 C1.01 7 0.02 7 -1 7 C-1.66 6.34 -2.32 5.68 -3 5 C-2.01 3.35 -1.02 1.7 0 0 Z " fill="#605D5D" transform="translate(474,611)"/>
<path d="M0 0 C0.66 0.33 1.32 0.66 2 1 C-2.296875 5.00390625 -2.296875 5.00390625 -4 6 C-6.203125 5.65234375 -6.203125 5.65234375 -8 5 C-6.71475739 4.13619741 -5.42157581 3.28419631 -4.125 2.4375 C-3.04605469 1.72400391 -3.04605469 1.72400391 -1.9453125 0.99609375 C-1.30335938 0.66738281 -0.66140625 0.33867188 0 0 Z " fill="#515552" transform="translate(632,679)"/>
<path d="M0 0 C1.98 0.99 1.98 0.99 4 2 C3.01 2.495 3.01 2.495 2 3 C2 5.64 2 8.28 2 11 C1.67 11 1.34 11 1 11 C0.67 7.37 0.34 3.74 0 0 Z " fill="#787774" transform="translate(492,472)"/>
<path d="" fill="#DE9496" transform="translate(0,0)"/>
<path d="" fill="#E09997" transform="translate(0,0)"/>
<path d="" fill="#E09997" transform="translate(0,0)"/>
<path d="" fill="#E69799" transform="translate(0,0)"/>
<path d="" fill="#DD8E92" transform="translate(0,0)"/>
</svg>
